Coordinates
version=1
nRows=14
nColumns=46
inDegrees=yes

Units are S.I. units (second, meters, Newtons, ...)
Angles are in degrees.

endheader
time	pelvis_tilt	pelvis_list	pelvis_rotation	pelvis_tx	pelvis_ty	pelvis_tz	bb_angle	bb_tx	bb_ty	bb_tz	hip_flexion_r	hip_adduction_r	hip_rotation_r	knee_angle_r	knee_angle_r_beta	ankle_angle_r	subtalar_angle_r	mtp_angle_r	crank_angle_r	hip_flexion_l	hip_adduction_l	hip_rotation_l	knee_angle_l	knee_angle_l_beta	ankle_angle_l	subtalar_angle_l	mtp_angle_l	crank_angle_l	lumbar_extension	lumbar_bending	lumbar_rotation	arm_flex_r	arm_add_r	arm_rot_r	elbow_flex_r	pro_sup_r	wrist_flex_r	wrist_dev_r	arm_flex_l	arm_add_l	arm_rot_l	elbow_flex_l	pro_sup_l	wrist_flex_l	wrist_dev_l
      2.50500000	    -17.40288111	      1.56435901	      1.19889136	      0.06041853	      1.15238947	     -0.24619229	      0.00000000	      0.50000000	      0.00000000	      0.25000000	     52.94886927	     -7.79886423	     -5.83548176	     61.14573942	      1.06719448	     13.56691240	     -0.93755092	      0.00000000	      0.00000000	     86.02368222	     -5.88219344	     -2.44650648	     82.78319392	      1.44483930	     12.71602926	      0.21658629	      0.00000000	      0.00000000	    -55.72638362	     -0.01786898	      0.33794991	     89.89770508	      2.01100351	      9.13555271	     45.91271014	     18.02628468	      0.00000000	      0.00000000	     89.89036702	      6.52966934	     11.33874441	     45.82997919	     17.12177387	      0.00000000	      0.00000000
      2.51000000	    -17.34387696	      1.55081399	      1.18822904	      0.06036080	      1.15253832	     -0.24618101	      0.00000000	      0.50000000	      0.00000000	      0.25000000	     52.83013976	     -7.77561275	     -5.85403617	     61.02069458	      1.06501203	     13.56811477	     -0.90945816	      0.00000000	      0.00000000	     85.98987574	     -5.90713900	     -2.43519954	     82.86081932	      1.44619412	     12.79986361	      0.28391303	      0.00000000	      0.00000000	    -55.81513078	     -0.01659346	      0.37554409	     89.89783113	      2.03447891	      8.91176170	     45.73929075	     19.43933905	      0.00000000	      0.00000000	     89.89056785	      6.60489141	     11.13453852	     45.58475093	     18.66247949	      0.00000000	      0.00000000
      2.51500000	    -17.35909450	      1.58919933	      1.16400714	      0.06028001	      1.15249625	     -0.24613174	      0.00000000	      0.50000000	      0.00000000	      0.25000000	     52.83204119	     -7.79171702	     -5.83976223	     60.95599334	      1.06388278	     13.59849181	     -0.94063897	      0.00000000	      0.00000000	     86.02049765	     -5.93257510	     -2.48410447	     82.90410923	      1.44694967	     12.80988619	      0.24452840	      0.00000000	      0.00000000	    -55.77634610	     -0.06549736	      0.34262684	     89.89807241	      1.72937062	      9.79229146	     45.48651583	     19.90719125	      0.00000000	      0.00000000	     89.89080728	      6.25047824	     11.97211523	     45.42709437	     19.03950507	      0.00000000	      0.00000000
      2.52000000	    -17.23695906	      1.52321568	      1.16543278	      0.06027002	      1.15283780	     -0.24611402	      0.00000000	      0.50000000	      0.00000000	      0.25000000	     52.59113437	     -7.73236003	     -5.90215189	     60.75586542	      1.06038989	     13.67777755	     -0.77579580	      0.00000000	      0.00000000	     85.92871194	     -5.95868432	     -2.40775723	     82.98934581	      1.44843733	     12.92202410	      0.32365743	      0.00000000	      0.00000000	    -55.96146825	      0.00979063	      0.43639980	     89.89785270	      2.10071910	      8.61253686	     45.19199502	     23.34940402	      0.00000000	      0.00000000	     89.89098035	      6.60618295	     10.86961309	     44.94746070	     22.55868063	      0.00000000	      0.00000000
      2.52500000	    -17.20133636	      1.56483837	      1.14799670	      0.06021233	      1.15288297	     -0.24599239	      0.00000000	      0.50000000	      0.00000000	      0.25000000	     52.52223194	     -7.73878541	     -5.88161769	     60.67354505	      1.05895313	     13.71944185	     -0.81654451	      0.00000000	      0.00000000	     85.91261994	     -6.00095477	     -2.47411610	     83.07614020	      1.44995218	     13.01025889	      0.29147921	      0.00000000	      0.00000000	    -56.01115234	     -0.05556977	      0.39472808	     89.89774413	      2.21521627	      8.21335265	     44.99047403	     24.82549894	      0.00000000	      0.00000000	     89.89103575	      6.71431527	     10.50887534	     44.75380101	     24.08491450	      0.00000000	      0.00000000
      2.53000000	    -17.34776452	      1.64505180	      1.14637366	      0.05998192	      1.15253433	     -0.24601260	      0.00000000	      0.50000000	      0.00000000	      0.25000000	     52.69284402	     -7.79974981	     -5.82018539	     60.61430086	      1.05791912	     13.62572579	     -0.83298498	      0.00000000	      0.00000000	     86.09794983	     -5.96973728	     -2.51486482	     83.12659325	      1.45083275	     13.02155478	      0.38699191	      0.00000000	      0.00000000	    -55.80631477	     -0.15719394	      0.37141259	     89.89775459	      1.65918102	      9.72293333	     46.53176649	     15.28646696	      0.00000000	      0.00000000	     89.89082864	      6.57537319	     11.48886486	     46.50497479	     13.98620590	      0.00000000	      0.00000000
      2.53500000	    -17.33615153	      1.67506873	      1.16591807	      0.05987682	      1.15262479	     -0.24600565	      0.00000000	      0.50000000	      0.00000000	      0.25000000	     52.62268957	     -7.83570693	     -5.84293572	     60.47093015	      1.05541683	     13.62308478	     -0.79503782	      0.00000000	      0.00000000	     86.11092032	     -5.94150358	     -2.53125154	     83.18575122	      1.45186525	     13.07602113	      0.37227571	      0.00000000	      0.00000000	    -55.82685919	     -0.14719045	      0.31684173	     89.89806252	      1.76982421	      9.42059959	     46.56000736	     15.45040099	      0.00000000	      0.00000000	     89.89103092	      6.45552154	     11.57491483	     46.50269476	     14.23180580	      0.00000000	      0.00000000
      2.54000000	    -17.42325305	      1.73123999	      1.14918341	      0.05973926	      1.15240625	     -0.24600287	      0.00000000	      0.50000000	      0.00000000	      0.25000000	     52.70433057	     -7.87419577	     -5.79700148	     60.38773888	      1.05396487	     13.59701918	     -0.69458195	      0.00000000	      0.00000000	     86.24044523	     -5.94668525	     -2.56411266	     83.28142228	      1.45353502	     13.10316819	      0.47803022	      0.00000000	      0.00000000	    -55.72842273	     -0.17963404	      0.31742105	     89.89791409	      2.05277036	      8.77401264	     45.63033548	     19.77726809	      0.00000000	      0.00000000	     89.89122431	      6.62836996	     11.13104305	     45.56752622	     18.77674636	      0.00000000	      0.00000000
      2.54500000	    -17.32997657	      1.72406969	      1.17318391	      0.05964430	      1.15263689	     -0.24599358	      0.00000000	      0.50000000	      0.00000000	      0.25000000	     52.52655379	     -7.88312527	     -5.86576317	     60.22445058	      1.05111495	     13.56785467	     -0.75556080	      0.00000000	      0.00000000	     86.18996119	     -5.93247519	     -2.55927989	     83.36579003	      1.45500752	     13.10111622	      0.31725115	      0.00000000	      0.00000000	    -55.81015265	     -0.17904507	      0.23294006	     89.89861062	      1.64379750	      9.95736266	     45.48409221	     20.12696206	      0.00000000	      0.00000000	     89.89172445	      6.14708159	     12.27288913	     45.48271008	     19.07339560	      0.00000000	      0.00000000
      2.55000000	    -17.39830857	      1.66875278	      1.15999421	      0.05949560	      1.15248951	     -0.24588633	      0.00000000	      0.50000000	      0.00000000	      0.25000000	     52.53483728	     -7.81011829	     -5.90921364	     60.07040748	      1.04842639	     13.58818414	     -0.72946992	      0.00000000	      0.00000000	     86.33517907	     -5.97117839	     -2.48034768	     83.47194545	      1.45686028	     13.14285610	      0.43956586	      0.00000000	      0.00000000	    -55.74692550	     -0.15138532	      0.39255799	     89.89833360	      1.65035446	      9.85895620	     46.33761220	     16.11946271	      0.00000000	      0.00000000	     89.89130616	      6.42697024	     12.04959583	     46.33806288	     14.77597143	      0.00000000	      0.00000000
      2.55500000	    -17.35832316	      1.75827241	      1.16416592	      0.05937051	      1.15260067	     -0.24585672	      0.00000000	      0.50000000	      0.00000000	      0.25000000	     52.45299237	     -7.87954276	     -5.87598908	     59.94301129	      1.04620291	     13.60389839	     -0.72106773	      0.00000000	      0.00000000	     86.31814104	     -5.95474264	     -2.56501001	     83.55754217	      1.45835423	     13.14810490	      0.41003002	      0.00000000	      0.00000000	    -55.81176661	     -0.22252241	      0.26067141	     89.89808589	      1.82932191	      9.24853329	     46.62859209	     15.20967339	      0.00000000	      0.00000000	     89.89149813	      6.46778528	     11.61118680	     46.61441491	     13.92362394	      0.00000000	      0.00000000
      2.56000000	    -17.33315939	      1.71776824	      1.18792850	      0.05928252	      1.15268502	     -0.24587644	      0.00000000	      0.50000000	      0.00000000	      0.25000000	     52.34652850	     -7.86792035	     -5.96717247	     59.77015115	      1.04318593	     13.51030155	     -0.70669613	      0.00000000	      0.00000000	     86.35485038	     -5.94469630	     -2.49700484	     83.67265826	      1.46036338	     13.24551503	      0.53388578	      0.00000000	      0.00000000	    -55.85126673	     -0.16777678	      0.34997121	     89.89821321	      2.11301576	      8.13688001	     45.20249843	     23.21769718	      0.00000000	      0.00000000	     89.89195060	      6.80871742	     10.64862066	     44.98851117	     22.40464014	      0.00000000	      0.00000000
      2.56500000	    -17.39660975	      1.69602368	      1.19833900	      0.05912233	      1.15251841	     -0.24584093	      0.00000000	      0.50000000	      0.00000000	      0.25000000	     52.36336064	     -7.83803312	     -5.98622206	     59.63940705	      1.04090402	     13.53826310	     -0.71040239	      0.00000000	      0.00000000	     86.49973661	     -5.94666209	     -2.45486461	     83.78756945	      1.46236896	     13.27731974	      0.54995475	      0.00000000	      0.00000000	    -55.76571171	     -0.15504582	      0.36993062	     89.89817996	      2.16409465	      7.84622749	     44.53867648	     26.46482254	      0.00000000	      0.00000000	     89.89209070	      6.84193716	     10.44559551	     44.29423323	     25.87787459	      0.00000000	      0.00000000
      2.57000000	    -17.39251156	      1.78651542	      1.19184638	      0.05897816	      1.15261794	     -0.24577669	      0.00000000	      0.50000000	      0.00000000	      0.25000000	     52.32001920	     -7.90484841	     -5.95501172	     59.49958816	      1.03846372	     13.53409116	     -0.63352932	      0.00000000	      0.00000000	     86.51830351	     -5.94474361	     -2.55592861	     83.85355415	      1.46352061	     13.21445558	      0.42830611	      0.00000000	      0.00000000	    -55.78765455	     -0.25705699	      0.24854384	     89.89814532	      1.80925095	      9.13719377	     46.69842028	     15.17076799	      0.00000000	      0.00000000	     89.89200208	      6.50034115	     11.61898250	     46.66102816	     13.78801066	      0.00000000	      0.00000000
